<?xml version="1.0" standalone="no"?>
<!DOCTYPE svg PUBLIC "-//W3C//DTD SVG 20010904//EN"
 "http://www.w3.org/TR/2001/REC-SVG-20010904/DTD/svg10.dtd">
<svg version="1.0" xmlns="http://www.w3.org/2000/svg"
 width="670.000000pt" height="702.000000pt" viewBox="0 0 670.000000 702.000000"
 preserveAspectRatio="xMidYMid meet">

<g transform="translate(0.000000,702.000000) scale(0.100000,-0.100000)"
fill="#000000" stroke="none">
<path d="M1145 7003 c-250 -21 -523 -81 -712 -157 -100 -40 -310 -140 -334
-158 -28 -22 -79 -114 -79 -142 0 -90 144 -85 168 7 8 29 20 37 153 99 323
150 603 208 1004 208 227 0 282 -7 445 -56 264 -80 634 -272 910 -473 140
-101 310 -272 389 -390 151 -225 227 -492 233 -821 l3 -145 -114 -8 c-212 -14
-464 -85 -701 -198 -271 -130 -419 -246 -517 -407 l-34 -57 3 -126 c3 -122 4
-127 41 -201 42 -86 123 -169 203 -209 46 -22 59 -24 209 -23 143 1 169 3 246
27 410 125 682 428 789 877 11 47 20 100 20 118 l0 32 53 0 c135 0 471 -120
727 -258 362 -195 571 -394 743 -707 139 -253 270 -613 386 -1065 91 -357 95
-396 97 -1002 1 -479 3 -529 18 -553 35 -53 91 -7 121 99 39 137 47 265 42
644 -4 341 -6 378 -31 521 -70 407 -259 1006 -417 1322 -140 280 -323 511
-536 673 -308 233 -839 468 -1123 495 l-65 6 -7 168 c-3 92 -14 214 -23 270
-92 551 -413 935 -1082 1297 -266 143 -513 239 -723 280 -84 16 -140 20 -285
18 -99 -1 -198 -3 -220 -5z m2165 -2234 c0 -17 -9 -65 -20 -107 -83 -322 -274
-564 -539 -684 -163 -75 -387 -101 -477 -57 -121 58 -188 233 -136 352 79 178
489 411 872 495 116 26 136 29 228 31 l72 1 0 -31z"/>
<path d="M6562 2175 c-22 -18 -48 -67 -92 -173 -34 -81 -146 -318 -250 -527
-257 -520 -324 -683 -421 -1027 l-53 -186 -162 166 c-206 213 -420 410 -654
602 -415 341 -569 469 -655 545 -236 211 -243 216 -283 213 -32 -3 -37 -7 -40
-30 -4 -34 3 -42 203 -243 83 -82 260 -244 395 -360 516 -442 710 -624 1044
-977 151 -160 182 -180 237 -158 38 16 49 39 89 185 130 483 204 672 460 1185
173 345 198 397 256 547 52 133 59 208 22 243 -29 27 -60 25 -96 -5z"/>
</g>
</svg>
